<?xml version="1.0" encoding="UTF-8" standalone="no"?><!DOCTYPE svg PUBLIC "-//W3C//DTD SVG 1.1//EN" "http://www.w3.org/Graphics/SVG/1.1/DTD/svg11.dtd"><svg width="100%" height="100%" viewBox="0 0 123 123" version="1.1" xmlns="http://www.w3.org/2000/svg" xmlns:xlink="http://www.w3.org/1999/xlink" xml:space="preserve" xmlns:serif="http://www.serif.com/" style="fill-rule:evenodd;clip-rule:evenodd;stroke-linejoin:round;stroke-miterlimit:2;"><path d="M94.622,9.731c28.539,18.314 36.841,56.352 18.527,84.891c-18.314,28.539 -56.352,36.841 -84.891,18.527c-28.539,-18.314 -36.841,-56.352 -18.527,-84.891c18.314,-28.539 56.352,-36.841 84.891,-18.527Z" style="fill:url(#_Linear1);"/><path d="M94.622,9.731c28.539,18.314 36.841,56.352 18.527,84.891c-18.314,28.539 -56.352,36.841 -84.891,18.527c-28.539,-18.314 -36.841,-56.352 -18.527,-84.891c18.314,-28.539 56.352,-36.841 84.891,-18.527Zm-2.414,3.762c-26.463,-16.981 -61.734,-9.283 -78.716,17.18c-16.981,26.463 -9.283,61.734 17.18,78.716c26.463,16.981 61.734,9.283 78.716,-17.18c16.981,-26.463 9.283,-61.734 -17.18,-78.716Z" style="fill:url(#_Linear2);"/><g><path d="M39.773,30.644l54.889,-8.376l-25.917,38.77l26.865,-4.161l0,12.537l-54.889,9.429l26.233,-39.244l-27.129,4.372l-0.053,-13.327Z" style="fill:#fff;fill-opacity:0.77;"/><path d="M94.663,22.268l-38.883,5.933l0.322,13.147l10.853,-1.749l-30.343,45.392l-9.343,-1.355l15.304,16.976l29.255,-18.313l-18.195,2.712l15.112,-23.972l25.917,-38.77Z" style="fill:#fff;"/></g><defs><linearGradient id="_Linear1" x1="0" y1="0" x2="1" y2="0" gradientUnits="userSpaceOnUse" gradientTransform="matrix(103.41846,66.363517,-66.363517,103.41846,9.73077,28.258241)"><stop offset="0" style="stop-color:#5017a0;stop-opacity:1"/><stop offset="0.77" style="stop-color:#ff007f;stop-opacity:1"/><stop offset="1" style="stop-color:#ff3b23;stop-opacity:1"/></linearGradient><linearGradient id="_Linear2" x1="0" y1="0" x2="1" y2="0" gradientUnits="userSpaceOnUse" gradientTransform="matrix(103.41846,66.363517,-66.363517,103.41846,9.73077,28.258241)"><stop offset="0" style="stop-color:#ff3b23;stop-opacity:1"/><stop offset="0.16" style="stop-color:#ff007f;stop-opacity:1"/><stop offset="1" style="stop-color:#5017a0;stop-opacity:1"/></linearGradient></defs></svg>